<?xml version="1.0" encoding="UTF-8"?><svg id="Layer_1" xmlns="http://www.w3.org/2000/svg" viewBox="0 0 124.51 125"><defs><style>.cls-1{fill:#797879;}</style></defs><g id="NewGroupe21"><g id="NewGroup0-2"><g><path class="cls-1" d="M36.62,109.13v-21.97c0-2.02-1.64-3.66-3.66-3.66s-3.66,1.64-3.66,3.66v21.97c0,2.02,1.64,3.66,3.66,3.66s3.66-1.64,3.66-3.66h0Z"/><path class="cls-1" d="M32.96,71.29c2.02,0,3.66,1.64,3.66,3.66s-1.64,3.66-3.66,3.66-3.66-1.64-3.66-3.66,1.64-3.66,3.66-3.66h0Z"/><path class="cls-1" d="M113.53,117.68H53.65c6.58-5.32,11.08-13.12,12.06-21.97h38.05c2.02,0,3.66-1.64,3.66-3.66s-1.64-3.66-3.66-3.66h-38.05c-.6-5.38-2.49-10.37-5.36-14.65h43.41c2.02,0,3.66-1.64,3.66-3.66s-1.64-3.66-3.66-3.66H53.65c-4.77-3.85-10.62-6.41-17.03-7.12V10.99c0-2.02,1.64-3.66,3.66-3.66h52.49V28.08c0,2.02,1.64,3.66,3.66,3.66h20.75V114.01c0,2.02-1.64,3.66-3.66,3.66h0ZM7.32,92.04c0-14.13,11.5-25.63,25.63-25.63s25.63,11.5,25.63,25.63-11.5,25.63-25.63,25.63-25.63-11.5-25.63-25.63h0ZM100.1,12.5l11.91,11.91h-11.91V12.5h0Zm23.34,12.98L99.03,1.07c-.69-.69-1.62-1.07-2.59-1.07H40.28c-6.06,0-10.99,4.93-10.99,10.99V59.29C12.84,61.11,0,75.11,0,92.04c0,18.17,14.79,32.96,32.96,32.96H113.53c6.06,0,10.99-4.93,10.99-10.99V28.08c0-.97-.39-1.9-1.07-2.59h0Z"/><path class="cls-1" d="M103.76,44.43H50.05c-2.02,0-3.66,1.64-3.66,3.66s1.64,3.66,3.66,3.66h53.71c2.02,0,3.66-1.64,3.66-3.66s-1.64-3.66-3.66-3.66h0Z"/></g></g></g></svg>