<?xml version="1.0" encoding="UTF-8"?><svg id="Layer_1" xmlns="http://www.w3.org/2000/svg" viewBox="0 0 95.21 125"><defs><style>.cls-1{fill:#797879;}</style></defs><g id="NewGroupe23"><g id="NewGroup0-0"><g><path class="cls-1" d="M84.23,117.68H10.99c-2.02,0-3.66-1.64-3.66-3.66V10.99c0-2.02,1.64-3.66,3.66-3.66H63.48V28.08c0,2.02,1.64,3.66,3.66,3.66h20.75V114.01c0,2.02-1.64,3.66-3.66,3.66h0ZM70.8,12.5l11.91,11.91h-11.91V12.5h0Zm23.34,12.98L69.73,1.07c-.69-.69-1.62-1.07-2.59-1.07H10.99C4.93,0,0,4.93,0,10.99V114.01c0,6.06,4.93,10.99,10.99,10.99H84.23c6.06,0,10.99-4.93,10.99-10.99V28.08c0-.97-.39-1.9-1.07-2.59h0Z"/><path class="cls-1" d="M72.64,89.38c-.69,1.19-1.83,1.32-2.29,1.32s-1.6-.13-2.29-1.32l-2.29-3.96h4.58c1.38,0,2.06,.92,2.29,1.32,.23,.4,.69,1.45,0,2.64h0Zm-30.52-11.29l5.49-9.5,5.49,9.5h-10.97Zm3.2-30.76c.23-.4,.91-1.32,2.29-1.32s2.06,.92,2.29,1.32c.23,.4,.69,1.45,0,2.64l-2.29,3.96-2.29-3.96c-.69-1.19-.23-2.25,0-2.64h0Zm-18.17,42.04c-.69,1.19-1.83,1.32-2.29,1.32s-1.6-.13-2.29-1.32c-.69-1.19-.23-2.25,0-2.64,.23-.4,.91-1.32,2.29-1.32h4.58l-2.29,3.96h0Zm43.21-11.29h-8.81l-9.72-16.83,4.4-7.63c1.8-3.12,1.8-6.85,0-9.97-1.8-3.12-5.03-4.98-8.63-4.98s-6.83,1.86-8.63,4.98c-1.8,3.12-1.8,6.85,0,9.97l4.4,7.63-9.72,16.83h-8.8c-3.6,0-6.83,1.86-8.63,4.98-1.8,3.12-1.8,6.85,0,9.97,1.8,3.12,5.03,4.98,8.63,4.98h0c3.6,0,6.83-1.86,8.63-4.98l4.4-7.63h19.43l4.4,7.63c1.8,3.12,5.03,4.98,8.63,4.98s6.83-1.86,8.63-4.98c1.8-3.12,1.8-6.85,0-9.97-1.8-3.12-5.03-4.98-8.63-4.98h0Z"/></g></g></g></svg>